PathFileType	4	(X/Y/Z)	DARI_DATA/Captury_Subj8_bilateral_squat02.trc
DataRate	CameraRate	NumFrames	NumMarkers	Units	OrigDataRate	OrigDataStartFrame	OrigNumFrames
60	60	4	47	mm	59.99879837036133	1	239
Frame#	Time		LeftUpLeg_		RightUpLeg_		LeftLeg_		RightLeg_		LeftFoot_		RightFoot_		LeftToeBase_		RightToeBase_		Knee_Lateral_r		Knee_Lateral_l		Ankle_Lateral_r		Ankle_Lateral_l		LeftArm_		LeftForeArm_		LeftHand_		LeftHandEE		RightArm_		RightForeArm_		RightHand_		RightHandEE		Spine_		Spine1_		Spine2_		Spine3_		Spine4_		Spine5_		Spine_x		Spine_y		Spine_z		RASI		LASI		RIPS		LIPS		RTHI		LTHI		RTIB		LTIB		RTOE		LTOE		RHEE		LHEE		RHipAngles		LHipAngles		RKneeAngles		LKneeAngles		RAnkleAngles		LAnkleAngles
			X1	Y1	Z1	X2	Y2	Z2	X3	Y3	Z3	X4	Y4	Z4	X5	Y5	Z5	X6	Y6	Z6	X7	Y7	Z7	X8	Y8	Z8	X9	Y9	Z9	X10	Y10	Z10	X11	Y11	Z11	X12	Y12	Z12	X13	Y13	Z13	X14	Y14	Z14	X15	Y15	Z15	X16	Y16	Z16	X17	Y17	Z17	X18	Y18	Z18	X19	Y19	Z19	X20	Y20	Z20	X21	Y21	Z21	X22	Y22	Z22	X23	Y23	Z23	X24	Y24	Z24	X25	Y25	Z25	X26	Y26	Z26	X27	Y27	Z27	X28	Y28	Z28	X29	Y29	Z29	X30	Y30	Z30	X31	Y31	Z31	X32	Y32	Z32	X33	Y33	Z33	X34	Y34	Z34	X35	Y35	Z35	X36	Y36	Z36	X37	Y37	Z37	X38	Y38	Z38	X39	Y39	Z39	X40	Y40	Z40	X41	Y41	Z41	X42	Y42	Z42	X43	Y43	Z43	X44	Y44	Z44	X45	Y45	Z45	X46	Y46	Z46	X47	Y47	Z47

1	0.00000	-88.58633	-93.25621	25.33490	88.58633	-93.25621	25.33490	-110.29377	-518.60474	18.68577	110.29377	-518.60474	18.68577	-131.57785	-910.93811	52.42644	131.57785	-910.93811	52.42644	-131.57785	-958.85712	-74.84645	131.57785	-958.85712	-74.84645	159.18439	-518.60474	18.68577	-159.18439	-518.60474	18.68577	180.61952	-910.93811	72.04311	-180.61952	-910.93811	72.04311	-136.52823	458.41956	11.27850	-416.16629	445.65640	31.23876	-656.11157	429.07483	48.36580	-743.67963	423.02338	54.61590	136.52823	458.41956	11.27850	416.16629	445.65640	31.23876	656.11157	429.07483	48.36580	743.67963	423.02338	54.61590	0.00000	4.32234	44.97423	0.00000	115.97742	25.03582	0.00000	200.61594	34.10780	0.00000	301.90305	64.21478	0.00000	451.83984	48.86221	-27904771620864.00000	0.00000	-27904805175296.00000	49.84601	4.32234	44.97423	0.00000	54.16835	44.97423	0.00000	4.32234	94.82024	149.53804	-25.58526	-74.65620	-149.53804	-25.58526	-74.65620	39.87681	-25.58526	74.88184	-39.87681	-25.58526	74.88184	168.33995	-292.64026	25.33490	-168.33995	-292.64026	25.33490	159.33543	-695.15479	18.68577	-159.33543	-754.00476	18.68577	131.57785	-958.85712	-151.51688	-131.57785	-958.85712	-151.51688	131.57785	-979.59644	101.46811	-131.57785	-979.59644	101.46811	-0.00000	-0.00000	-0.00000	-0.00000	0.00000	0.00000	0.00000	-0.00000	-0.00000	0.00000	0.00000	0.00000	-0.00000	-0.00000	-0.00000	-0.00000	0.00000	0.00000
2	0.01667	-86.69460	913.51758	138.75249	89.19344	913.00330	117.46168	-102.13963	489.76486	98.35564	106.06628	488.48038	86.92658	-130.09857	96.41943	102.18166	132.48799	95.26859	101.18495	-149.37123	45.38607	-22.39276	164.21252	34.09699	-16.05929	154.83644	487.67892	90.26158	-150.84926	488.64941	102.40810	179.92014	98.34893	124.21977	-177.08379	97.84294	126.27031	-116.34084	1401.22449	107.21972	-187.07358	1389.17151	-164.09256	-181.65463	1399.58850	-404.93304	-187.35849	1387.84302	-491.95810	138.37109	1408.40088	104.48795	152.82243	1373.45337	-173.59219	149.80597	1379.11121	-414.63342	154.63620	1371.66675	-502.18396	3.14833	1011.88422	141.41222	0.17957	1112.18835	118.03460	-0.70237	1186.40515	125.77563	-3.66121	1277.09253	155.83453	-6.20569	1416.61865	142.21503	-27904771620864.00000	0.00000	-27904805175296.00000	52.63292	1011.73956	135.42223	2.91334	1061.63049	138.26933	9.13545	1015.03253	190.79710	137.37399	974.04639	6.80428	-159.53354	974.91449	42.74417	46.46927	983.80969	168.13689	-32.70607	984.04120	177.72086	166.29413	712.68268	110.99835	-162.99173	713.03839	128.67860	158.41159	312.97726	81.12831	-156.87256	256.06696	83.93816	178.73277	19.43496	-89.90060	-160.82147	19.84955	-93.77296	137.58698	34.46740	159.46246	-113.06277	29.49399	150.65663	-7.08046	-0.12596	10.62991	-8.33690	-1.64494	-1.97920	-0.23376	1.84427	0.21100	0.04154	2.35388	0.39417	9.91615	5.61305	11.26061	6.38350	5.62386	-7.31862
3	0.03333	-86.95129	917.01111	138.75681	89.06946	916.03754	118.60995	-103.20171	493.30518	98.18643	107.58083	491.60260	87.80260	-128.65474	99.78571	101.56827	132.00943	98.19370	100.03268	-148.65208	47.38427	-22.32207	164.69250	35.60994	-16.19861	156.31000	490.94324	91.71753	-151.90723	492.27359	102.30962	179.20708	101.23615	123.54914	-175.66109	101.08041	125.62291	-116.67314	1402.07214	107.15379	-188.17010	1388.76099	-163.89926	-182.60274	1399.66577	-404.71475	-187.00171	1387.78540	-491.79721	138.37015	1408.29309	104.12518	153.71284	1373.27368	-173.89819	150.36263	1380.15100	-414.90335	154.63605	1371.87732	-502.40842	3.13417	1015.13654	142.04771	0.50350	1114.73413	118.65614	-0.36530	1188.24878	126.36334	-3.51306	1278.25635	156.31992	-6.19663	1417.05298	142.49275	-27904771620864.00000	0.00000	-27904805175296.00000	52.65611	1014.86261	136.37958	3.05217	1064.88464	138.92714	8.80834	1018.24615	191.47198	138.13116	977.00281	8.29736	-159.00043	978.64636	42.30622	46.20542	986.93427	169.04010	-33.02967	987.37256	178.10913	166.84346	715.95612	112.84134	-163.61606	716.67126	128.70174	159.16351	315.89008	81.53127	-156.43489	259.27902	83.48169	179.89658	20.21086	-89.75170	-160.47063	21.17739	-93.39861	136.23242	38.01200	159.01897	-112.83437	33.24950	150.98184	-7.14886	0.22571	10.91348	-8.32905	-1.65856	-1.52894	-0.00014	1.38025	0.16169	0.03260	1.87813	0.31476	10.86092	5.60430	11.36167	6.95921	5.61955	-5.88499
4	0.05000	-86.64624	919.42731	138.59071	89.41475	918.50586	118.79604	-103.15604	495.76431	97.67833	107.91001	494.07635	87.90516	-127.43443	102.17264	101.29391	132.28352	100.65244	99.75627	-149.09406	47.96678	-21.53609	165.12718	35.95883	-15.26832	156.62762	493.40375	91.95911	-151.84079	494.73523	102.04057	179.43980	104.03534	123.30919	-174.37543	103.58618	125.46916	-117.25382	1402.70801	107.30433	-189.19307	1388.50037	-163.58612	-183.59755	1399.92163	-404.37701	-186.80286	1387.33740	-491.41272	138.28767	1408.47156	103.93204	154.52214	1373.38245	-174.03189	150.89009	1381.40845	-414.99744	154.93529	1371.80139	-502.37701	3.43320	1017.54218	142.32883	0.81661	1116.65540	119.11532	-0.11216	1189.63892	126.90708	-3.38807	1279.10815	156.89728	-6.25976	1417.37732	143.05331	-27904771620864.00000	0.00000	-27904805175296.00000	52.96646	1017.28296	136.75977	3.35789	1067.29858	139.34282	9.00779	1020.51788	191.77267	138.69913	979.76892	8.74800	-158.50037	981.32440	42.16239	46.44974	989.26636	169.33150	-32.80346	989.68115	178.24200	167.15585	718.40723	113.18533	-163.38780	719.10803	128.71391	159.48907	318.36624	81.53760	-155.73749	261.57550	83.22014	180.42159	19.32369	-88.53295	-161.76822	20.80919	-92.10651	136.39578	41.55061	159.83220	-113.40215	36.18697	151.96973	-7.00972	0.19955	10.96318	-8.22919	-1.60721	-1.14200	0.04279	1.38217	0.09997	-0.06684	1.69908	0.21043	11.95143	5.59108	11.44622	7.68383	5.61170	-4.00446
